<?xml version="1.0" encoding="utf-8"?>
<!-- Generator: Adobe Illustrator 27.8.0, SVG Export Plug-In . SVG Version: 6.00 Build 0)  -->
<svg version="1.1" id="Layer_1" xmlns="http://www.w3.org/2000/svg" xmlns:xlink="http://www.w3.org/1999/xlink" x="0px" y="0px"
	 viewBox="0 0 79.8 79.4" style="enable-background:new 0 0 79.8 79.4;" xml:space="preserve">
<style type="text/css">
	.st0{fill:#FF9650;}
</style>
<g>
	<path class="st0" d="M0.8,34.9l10,1.3l0.4-3.1l3.2,0.4l-0.9,6.6L0.3,38.4L0.8,34.9z"/>
	<path class="st0" d="M6.6,18.9L19.5,23l-1.8,3.2l-2.1-0.8l-1.3,2.3l1.8,1.4l-1.8,3.2L4,23.7L6.6,18.9z M7.6,22.6L12,26l0.8-1.5
		L7.6,22.6L7.6,22.6z"/>
	<path class="st0" d="M16.2,8.6l2.1,2.3l-1.7,1.5l6.9,7.5l-2.6,2.4L14,14.8l-1.7,1.5L10.2,14L16.2,8.6z"/>
	<path class="st0" d="M25.2,3.5l1.4,2.8l-2.8,1.4l0.9,1.7l2.5-1.3l1.4,2.8L26,12.2l0.9,1.9l2.9-1.5l1.4,2.8l-6,3.1l-6-11.9L25.2,3.5
		z"/>
	<path class="st0" d="M30.5,5.7c-0.1-0.5-0.1-1,0-1.5s0.3-1,0.6-1.4s0.8-0.8,1.3-1.2C33,1.3,33.7,1.1,34.6,1c0.3,0,0.6-0.1,0.9-0.1
		c0.3,0,0.6,0,0.9,0C36.7,1,36.9,1,37.1,1c0.2,0.1,0.4,0.1,0.5,0.2l0.5,3.5c-0.6-0.3-1.1-0.5-1.5-0.5s-0.7-0.1-1,0
		c-0.4,0.1-0.7,0.2-1,0.4c-0.3,0.2-0.4,0.5-0.3,0.8c0,0.3,0.2,0.5,0.5,0.7c0.3,0.1,0.7,0.2,1.1,0.3c0.4,0.1,0.8,0.2,1.2,0.3
		c0.4,0.1,0.7,0.3,1.1,0.6s0.6,0.6,0.8,1s0.4,0.9,0.5,1.5c0.1,0.5,0.1,1,0,1.6c-0.1,0.5-0.3,1-0.7,1.5s-0.8,0.9-1.4,1.2
		c-0.6,0.3-1.3,0.6-2.2,0.7c-0.5,0.1-1.1,0.1-1.6,0.1s-1.1-0.1-1.6-0.3l-0.6-3.7c0.5,0.3,1,0.5,1.5,0.6c0.5,0.2,1,0.2,1.4,0.1
		c0.4-0.1,0.8-0.2,1-0.4s0.3-0.4,0.3-0.8c0-0.3-0.2-0.5-0.5-0.7c-0.3-0.1-0.7-0.3-1.1-0.4c-0.4-0.1-0.8-0.2-1.2-0.4S32,8.5,31.7,8.3
		c-0.3-0.3-0.6-0.6-0.9-1S30.6,6.4,30.5,5.7z"/>
	<path class="st0" d="M49.8,1.9L49.3,5L47,4.7l-1.5,10.1L42,14.3l1.5-10.1l-2.3-0.3l0.5-3.1L49.8,1.9z"/>
	<path class="st0" d="M63.4,8.5c0.5,0.4,0.9,0.8,1.3,1.3s0.6,1,0.7,1.5c0.1,0.6,0.1,1.1,0,1.7c-0.1,0.6-0.4,1.2-0.9,1.9
		c-0.4,0.6-0.9,1.1-1.5,1.4c-0.5,0.3-1.1,0.5-1.7,0.5c-0.6,0-1.2,0-1.7-0.2c-0.6-0.2-1.1-0.5-1.6-0.8l-0.9-0.6l-2.5,3.5l-2.9-2.1
		l7.8-10.8L63.4,8.5z M59.3,12.9c0.4,0.3,0.7,0.4,1.1,0.4s0.8-0.2,1.1-0.6c0.2-0.3,0.3-0.5,0.3-0.7s0-0.4-0.1-0.6
		c-0.1-0.2-0.2-0.4-0.3-0.5c-0.2-0.2-0.3-0.3-0.5-0.4l-0.2-0.2l-1.8,2.4L59.3,12.9z"/>
	<path class="st0" d="M64.2,17.5c0.8-0.5,1.6-1,2.4-1.2c0.8-0.3,1.6-0.4,2.4-0.4s1.5,0.2,2.2,0.6s1.3,1,1.9,1.8s0.9,1.6,1,2.4
		s0,1.5-0.3,2.3s-0.7,1.4-1.3,2s-1.3,1.2-2.1,1.8c-0.8,0.5-1.6,1-2.4,1.2c-0.8,0.3-1.6,0.4-2.4,0.4s-1.5-0.3-2.1-0.7
		c-0.7-0.4-1.3-1-1.8-1.8s-0.9-1.6-1-2.4s0-1.5,0.2-2.2s0.7-1.4,1.2-2C62.7,18.6,63.4,18,64.2,17.5z M70.3,20.1
		c-0.3-0.5-0.8-0.7-1.5-0.7s-1.5,0.4-2.4,1c-1,0.7-1.6,1.3-1.9,1.9s-0.2,1.1,0.1,1.6c0.3,0.5,0.8,0.7,1.5,0.7c0.6,0,1.5-0.3,2.5-1
		c0.4-0.2,0.7-0.5,1-0.8s0.6-0.6,0.7-0.9c0.2-0.3,0.3-0.6,0.3-0.9S70.5,20.5,70.3,20.1z"/>
	<path class="st0" d="M78.7,32c0.4,1.7,0.1,3.1-0.8,4.2c-0.9,1.2-2.4,1.9-4.4,2.4c-1,0.2-2,0.3-2.8,0.2c-0.9-0.1-1.7-0.3-2.3-0.7
		c-0.7-0.4-1.2-0.9-1.7-1.5s-0.8-1.4-1-2.3l-0.9-4.1l13-2.8L78.7,32z M68.9,33.7c0,0.1,0.1,0.3,0.2,0.5s0.3,0.4,0.6,0.5
		s0.7,0.3,1.1,0.3c0.5,0.1,1.1,0,1.9-0.2c0.6-0.1,1.2-0.3,1.6-0.5s0.7-0.4,0.9-0.7c0.2-0.3,0.3-0.6,0.4-0.9c0-0.3,0-0.7-0.1-1.1
		v-0.1L68.8,33L68.9,33.7z"/>
	<path class="st0" d="M72.8,40.2c1.1,0.1,2,0.3,2.9,0.7s1.6,0.7,2.2,1.3c0.6,0.5,1,1.1,1.3,1.8s0.4,1.5,0.3,2.3
		c0,0.3-0.1,0.7-0.2,1.1s-0.3,0.9-0.6,1.3l-3.4-0.4c0.2-0.2,0.4-0.5,0.5-0.7c0.1-0.3,0.2-0.5,0.2-0.8s0-0.7-0.1-1s-0.3-0.6-0.5-0.9
		c-0.3-0.3-0.6-0.5-1.1-0.7s-1-0.3-1.8-0.4c-0.4,0-0.9-0.1-1.3,0c-0.4,0-0.8,0.1-1.1,0.2s-0.6,0.3-0.8,0.5c-0.2,0.2-0.3,0.5-0.4,0.9
		c0,0.4,0,0.7,0.1,1s0.2,0.6,0.4,1.1L65.8,47c-0.1-0.2-0.1-0.6-0.2-1.1c0-0.5,0-1.1,0-1.6c0.1-0.9,0.3-1.6,0.7-2.2s0.9-1.1,1.5-1.4
		c0.6-0.4,1.3-0.6,2.2-0.7C71,40,71.9,40,72.8,40.2z"/>
	<path class="st0" d="M73.7,61.5l-12.9-4l1.7-3.3l2.1,0.8l1.2-2.3L64,51.4l1.7-3.3l10.5,8.6L73.7,61.5z M72.7,57.9l-4.4-3.3L67.4,56
		L72.7,57.9L72.7,57.9z"/>
	<path class="st0" d="M65.7,65.6c0.3,0.4,0.6,0.8,0.7,1.3s0.2,1,0.2,1.5c-0.1,0.5-0.2,1.1-0.6,1.7c-0.3,0.6-0.8,1.1-1.5,1.7
		c-0.2,0.2-0.5,0.4-0.8,0.5s-0.5,0.3-0.8,0.4c-0.2,0.1-0.5,0.2-0.7,0.3c-0.2,0.1-0.4,0.1-0.5,0.1l-2.2-2.8c0.7,0,1.2-0.1,1.5-0.3
		c0.4-0.2,0.6-0.3,0.8-0.5c0.3-0.2,0.5-0.5,0.7-0.8c0.1-0.3,0.1-0.6-0.1-0.9c-0.2-0.3-0.5-0.4-0.8-0.3s-0.7,0.1-1.1,0.3
		c-0.4,0.1-0.8,0.2-1.2,0.3c-0.4,0.1-0.8,0.1-1.2,0.1c-0.4-0.1-0.8-0.2-1.2-0.4c-0.4-0.2-0.8-0.6-1.2-1.1c-0.3-0.4-0.6-0.9-0.8-1.4
		s-0.2-1-0.2-1.6c0.1-0.6,0.2-1.2,0.6-1.7c0.3-0.6,0.8-1.2,1.6-1.7c0.4-0.3,0.9-0.6,1.4-0.9c0.5-0.3,1-0.4,1.5-0.5l2.4,3
		c-0.5,0-1.1,0.1-1.6,0.2c-0.5,0.1-0.9,0.3-1.3,0.6c-0.3,0.3-0.6,0.6-0.7,0.8c-0.1,0.3-0.1,0.5,0.1,0.8c0.2,0.2,0.5,0.3,0.8,0.3
		s0.7-0.1,1.1-0.2c0.4-0.1,0.8-0.2,1.2-0.3c0.4-0.1,0.8-0.1,1.2,0c0.4,0.1,0.8,0.2,1.3,0.4C64.8,64.7,65.3,65.1,65.7,65.6z"/>
	<path class="st0" d="M50.9,78.7l-1.1-2.9l2.1-0.8l-3.8-9.5l3.3-1.3l3.8,9.5l2.1-0.8l1.1,2.9L50.9,78.7z"/>
</g>
</svg>
