<?xml version="1.0" encoding="utf-8"?>
<!-- Generator: Adobe Illustrator 27.8.0, SVG Export Plug-In . SVG Version: 6.00 Build 0)  -->
<svg version="1.1" id="Layer_1" xmlns="http://www.w3.org/2000/svg" xmlns:xlink="http://www.w3.org/1999/xlink" x="0px" y="0px"
	 viewBox="0 0 79 79.5" style="enable-background:new 0 0 79 79.5;" xml:space="preserve">
<style type="text/css">
	.st0{fill:#FF9650;}
</style>
<g>
	<path class="st0" d="M0.3,34.2l10,1.3l0.4-3.1l3.2,0.4l-0.8,6.6l-13.3-1.7L0.3,34.2z"/>
	<path class="st0" d="M6.1,18.2L19,22.4l-1.8,3.2l-2.1-0.8l-1.3,2.4l1.8,1.4l-1.8,3.2L3.4,23.1L6.1,18.2z M7,21.9l4.4,3.4l0.8-1.5
		L7,21.9L7,21.9z"/>
	<path class="st0" d="M15.6,7.9l2.1,2.3L16,11.7l6.9,7.5l-2.6,2.4l-6.9-7.5l-1.6,1.6l-2.1-2.3L15.6,7.9z"/>
	<path class="st0" d="M24.7,2.9l1.4,2.8l-2.8,1.4l0.9,1.7l2.5-1.3l1.4,2.8l-2.5,1.3l0.9,1.9l2.9-1.5l1.4,2.8l-6,3.1l-6-11.8
		L24.7,2.9z"/>
	<path class="st0" d="M29.9,5.1c-0.1-0.5-0.1-1,0-1.5s0.3-1,0.6-1.4s0.8-0.8,1.3-1.2s1.3-0.6,2.1-0.7c0.3,0,0.6-0.1,0.9-0.1
		c0.3,0,0.6,0,0.9,0c0.3,0,0.5,0.1,0.7,0.1c0.2,0.1,0.4,0.1,0.5,0.2L37.4,4c-0.6-0.3-1.1-0.5-1.5-0.5s-0.7-0.1-1,0
		c-0.4,0.1-0.7,0.2-1,0.4c0,0.2-0.1,0.5-0.1,0.8s0.2,0.5,0.5,0.7c0.3,0.1,0.7,0.2,1.1,0.3c0.4,0.1,0.8,0.2,1.2,0.3
		c0.4,0.1,0.7,0.3,1.1,0.6s0.6,0.6,0.8,1s0.4,0.9,0.5,1.5c0.1,0.5,0.1,1,0,1.6c-0.1,0.5-0.3,1-0.7,1.5c-0.3,0.5-0.8,0.9-1.4,1.2
		c-0.6,0.3-1.3,0.6-2.2,0.7c-0.5,0.1-1.1,0.1-1.6,0.1s-1.1-0.1-1.6-0.3l-0.6-3.7c0.5,0.3,1,0.5,1.5,0.6c0.5,0.2,1,0.2,1.4,0.1
		c0.4-0.1,0.8-0.2,1-0.4s0.3-0.4,0.3-0.8c0-0.3-0.2-0.5-0.5-0.7c-0.3-0.1-0.7-0.3-1.1-0.4c-0.4-0.1-0.8-0.2-1.2-0.4
		c-0.4-0.1-0.8-0.4-1.1-0.6c-0.3-0.3-0.6-0.6-0.9-1S30,5.7,29.9,5.1z"/>
	<path class="st0" d="M49.3,1.2l-0.5,3l-2.3-0.3L45.1,14l-3.5-0.5l1.5-10.1l-2.3-0.3L41.3,0L49.3,1.2z"/>
	<path class="st0" d="M64.9,9.1l-1.7,2.6l-1.9-1.3l-5.7,8.5l-2.9-2l5.7-8.5l-1.9-1.3l1.7-2.6L64.9,9.1z"/>
	<path class="st0" d="M71.9,16.7l-2.4,2l-2.1-2.4L66,17.5l1.8,2.1l-2.4,2l-1.8-2.1L62,20.9l2.1,2.5l-2.4,2l-4.4-5.2l10.1-8.6
		L71.9,16.7z"/>
	<path class="st0" d="M76.3,25.1L67,28.9l1.2,2.9l-3,1.2l-2.5-6.1L75,21.8L76.3,25.1z"/>
	<path class="st0" d="M79.2,40.2l-3.1,0.2l-0.2-3.2L74,37.2l0.2,2.8l-3.1,0.2l-0.2-2.8l-2.1,0.3L69,41l-3.1,0.2l-0.5-6.8l13.3-1
		L79.2,40.2z"/>
	<path class="st0" d="M79.2,43.9l-0.9,3.6l-9.9-0.7l0,0l9.1,3.9l-0.9,3.6l-12.2-6.1l1.1-4.5L79.2,43.9z"/>
	<path class="st0" d="M73.3,60.4L61.7,54l1.7-3.1L75,57.3L73.3,60.4z"/>
	<path class="st0" d="M67.2,62.7c0.3,0.4,0.6,0.8,0.8,1.2c0.2,0.5,0.3,1,0.3,1.5s-0.1,1.1-0.4,1.7c-0.3,0.6-0.7,1.2-1.3,1.8
		c-0.2,0.2-0.5,0.4-0.7,0.6c-0.3,0.2-0.5,0.3-0.7,0.5s-0.5,0.3-0.7,0.3s-0.4,0.1-0.5,0.1l-2.5-2.6c0.7-0.1,1.2-0.2,1.5-0.4
		c0.4-0.2,0.6-0.4,0.8-0.5c0.3-0.3,0.5-0.6,0.6-0.9c0.1-0.3,0.1-0.6-0.2-0.8c-0.2-0.2-0.5-0.3-0.8-0.2s-0.7,0.2-1.1,0.4
		c-0.4,0.2-0.8,0.3-1.2,0.4c-0.4,0.1-0.8,0.2-1.2,0.2s-0.8-0.1-1.2-0.3c-0.4-0.2-0.9-0.5-1.3-1c-0.4-0.4-0.7-0.8-0.9-1.3
		s-0.3-1-0.3-1.6s0.1-1.2,0.4-1.8c0.3-0.6,0.7-1.2,1.4-1.9c0.4-0.4,0.8-0.7,1.3-1s1-0.5,1.5-0.6l2.6,2.7c-0.5,0.1-1.1,0.2-1.5,0.3
		s-0.9,0.4-1.2,0.7s-0.5,0.6-0.6,0.9c-0.1,0.3,0,0.5,0.2,0.8c0.2,0.2,0.5,0.3,0.8,0.2s0.7-0.2,1.1-0.3c0.4-0.1,0.8-0.3,1.2-0.4
		c0.4-0.1,0.8-0.2,1.2-0.1c0.4,0,0.9,0.1,1.3,0.3C66.3,61.8,66.8,62.2,67.2,62.7z"/>
	<path class="st0" d="M56.9,75.4l-6.4-11.7l3.1-1.7L60,73.6L56.9,75.4z"/>
	<path class="st0" d="M51.5,70.9c0.2,1,0.3,1.9,0.2,2.7c-0.1,0.8-0.2,1.7-0.5,2.4s-0.8,1.3-1.4,1.8c-0.6,0.5-1.4,0.8-2.4,1
		s-1.8,0.2-2.6,0s-1.4-0.6-2-1.1s-1-1.2-1.4-2s-0.7-1.6-0.8-2.6c-0.2-1-0.3-1.9-0.2-2.7c0.1-0.8,0.2-1.6,0.6-2.3
		c0.4-0.7,0.8-1.3,1.4-1.7c0.6-0.5,1.4-0.8,2.4-1s1.8-0.2,2.6,0s1.4,0.5,2,1.1c0.6,0.5,1,1.1,1.4,1.9C51,69.1,51.3,69.9,51.5,70.9z
		 M46.7,75.4c0.6-0.1,1-0.5,1.2-1.1c0.2-0.6,0.2-1.5,0-2.6c-0.2-1.2-0.6-2-1-2.4c-0.5-0.5-1-0.6-1.5-0.5c-0.5,0.1-1,0.5-1.2,1.1
		c-0.2,0.6-0.2,1.5,0,2.7c0.1,0.4,0.2,0.9,0.3,1.3c0.1,0.4,0.3,0.7,0.5,1s0.5,0.5,0.7,0.6C46,75.6,46.3,75.6,46.7,75.4z"/>
	<path class="st0" d="M32.6,78.8l-0.9-8.9l0,0L30,78.2l-3.2-0.7l2.6-13l4,0.8l0.9,8.9l0,0l1.7-8.3l3.2,0.6l-2.6,13L32.6,78.8z"/>
</g>
</svg>
