<?xml version="1.0" encoding="utf-8"?>
<!-- Generator: Adobe Illustrator 27.8.0, SVG Export Plug-In . SVG Version: 6.00 Build 0)  -->
<svg version="1.1" id="Layer_1" xmlns="http://www.w3.org/2000/svg" xmlns:xlink="http://www.w3.org/1999/xlink" x="0px" y="0px"
	 viewBox="0 0 79.8 79.4" style="enable-background:new 0 0 79.8 79.4;" xml:space="preserve">
<style type="text/css">
	.st0{fill:#FF6CF4;}
</style>
<g>
	<path class="st0" d="M0.5,34.2l10,1.3l0.4-3.1l3.2,0.4l-0.8,6.6L0,37.7L0.5,34.2z"/>
	<path class="st0" d="M6.3,18.3l12.9,4.1l-1.8,3.2l-2.1-0.8L14,27.2l1.8,1.4L14,31.8L3.6,23.1L6.3,18.3z M7.2,21.9l4.4,3.4l0.8-1.5
		L7.2,21.9L7.2,21.9z"/>
	<path class="st0" d="M15.8,7.9l2.1,2.3l-1.7,1.5l6.9,7.5l-2.6,2.4l-6.9-7.5L12,15.7l-2.1-2.3L15.8,7.9z"/>
	<path class="st0" d="M24.9,2.9l1.4,2.8l-2.8,1.4l0.9,1.7l2.5-1.3l1.4,2.8l-2.5,1.3l0.9,1.9l2.9-1.5l1.4,2.8l-6,3.1L19,6L24.9,2.9z"
		/>
	<path class="st0" d="M30.1,5.1c-0.1-0.5-0.1-1,0-1.5s0.3-1,0.6-1.4C31,1.8,31.5,1.4,32,1c0.6-0.3,1.3-0.6,2.1-0.7
		c0.3,0,0.6-0.1,0.9-0.1c0.3,0,0.6,0,0.9,0c0.3,0,0.5,0.1,0.7,0.1c0.2,0.1,0.4,0.1,0.5,0.2L37.6,4c-0.6-0.3-1.1-0.5-1.5-0.5
		s-0.7-0.1-1,0c-0.4,0.1-0.7,0.2-1,0.4C33.8,4.1,34,4.4,34,4.7c0,0.3,0.2,0.5,0.5,0.7c0.3,0.1,0.7,0.2,1.1,0.3
		C36,5.8,36.4,5.9,36.8,6s0.7,0.3,1.1,0.6c0.3,0.2,0.6,0.6,0.8,1c0.2,0.4,0.4,0.9,0.5,1.5c0.1,0.5,0.1,1,0,1.6
		c-0.1,0.5-0.3,1-0.7,1.5c-0.3,0.5-0.8,0.9-1.4,1.2c-0.6,0.3-1.3,0.6-2.2,0.7c-0.5,0.1-1.1,0.1-1.6,0.1s-1.1-0.1-1.6-0.3l-0.6-3.7
		c0.5,0.3,1,0.5,1.5,0.6c0.5,0.2,1,0.2,1.4,0.1c0.4-0.1,0.8-0.2,1-0.4s0.3-0.4,0.3-0.8c0-0.3-0.2-0.5-0.5-0.7
		c-0.3-0.1-0.7-0.3-1.1-0.4c-0.4-0.1-0.8-0.2-1.2-0.4s-0.8-0.4-1.1-0.6s-0.6-0.6-0.9-1S30.2,5.7,30.1,5.1z"/>
	<path class="st0" d="M49.5,1.2l-0.5,3l-2.3-0.3L45.3,14l-3.5-0.5l1.5-10.1L41,3.1L41.5,0L49.5,1.2z"/>
	<path class="st0" d="M64.6,8.8l-1.7,2.6L60,9.5l-1,1.6l2.6,1.7l-1.7,2.6l-2.6-1.7L54.4,18l-3-2l7.3-11.1L64.6,8.8z"/>
	<path class="st0" d="M69.4,13.5l-9.5,9.2l-2.5-2.5l9.5-9.2L69.4,13.5z"/>
	<path class="st0" d="M73.5,19.2L65,24.5l1.6,2.6l-2.8,1.7l-3.5-5.6l11.3-7.1L73.5,19.2z"/>
	<path class="st0" d="M78.6,32.5l-8.2,2.6l0,0H79l0.8,5l-13.1,2l-0.5-3.2l10.5-1.6l0,0l-10.8-0.4l-0.4-2.3l9.8-3.3l0,0l-10.1,1.5
		l-0.5-3.2l13.1-2L78.6,32.5z"/>
</g>
</svg>
