<?xml version="1.0" encoding="utf-8"?>
<!-- Generator: Adobe Illustrator 27.8.0, SVG Export Plug-In . SVG Version: 6.00 Build 0)  -->
<svg version="1.1" id="Layer_1" xmlns="http://www.w3.org/2000/svg" xmlns:xlink="http://www.w3.org/1999/xlink" x="0px" y="0px"
	 viewBox="0 0 79.8 79.4" style="enable-background:new 0 0 79.8 79.4;" xml:space="preserve">
<g>
	<path d="M0.5,34.2l10,1.3l0.4-3.1l3.2,0.4l-0.8,6.6L0,37.7L0.5,34.2z"/>
	<path d="M6.3,18.3l12.9,4.1l-1.8,3.2l-2.1-0.8L14,27.2l1.8,1.4L14,31.8L3.6,23.1L6.3,18.3z M7.2,21.9l4.4,3.4l0.8-1.5L7.2,21.9
		L7.2,21.9z"/>
	<path d="M15.8,7.9l2.1,2.3l-1.7,1.5l6.9,7.5l-2.6,2.4l-6.9-7.5L12,15.7l-2.1-2.3L15.8,7.9z"/>
	<path d="M24.9,2.9l1.4,2.8l-2.8,1.4l0.9,1.7l2.5-1.3l1.4,2.8l-2.5,1.3l0.9,1.9l2.9-1.5l1.4,2.8l-6,3.1l-6-11.8L24.9,2.9z"/>
	<path d="M30.1,5.1c-0.1-0.5-0.1-1,0-1.5c0.1-0.5,0.3-1,0.6-1.4s0.8-0.8,1.3-1.2s1.3-0.6,2.1-0.7c0.3,0,0.6-0.1,0.9-0.1
		c0.3,0,0.6,0,0.9,0c0.3,0,0.5,0.1,0.7,0.1c0.2,0.1,0.4,0.1,0.5,0.2l0.5,3.5c-0.6-0.3-1.1-0.5-1.5-0.5s-0.7-0.1-1,0
		c-0.4,0.1-0.7,0.2-1,0.4C34.1,4.1,34,4.4,34,4.7c0,0.3,0.2,0.5,0.5,0.7c0.3,0.1,0.7,0.2,1.1,0.3c0.4,0.1,0.8,0.2,1.2,0.3
		c0.4,0.1,0.7,0.3,1.1,0.6s0.6,0.6,0.8,1c0.2,0.4,0.4,0.9,0.5,1.5c0.1,0.5,0.1,1,0,1.6c-0.1,0.5-0.3,1-0.7,1.5
		c-0.3,0.5-0.8,0.9-1.4,1.2c-0.6,0.3-1.3,0.6-2.2,0.7c-0.5,0.1-1.1,0.1-1.6,0.1c-0.5,0-1.1-0.1-1.6-0.3l-0.6-3.7
		c0.5,0.3,1,0.5,1.5,0.6c0.5,0.2,1,0.2,1.4,0.1c0.4-0.1,0.8-0.2,1-0.4c0.2-0.2,0.3-0.4,0.3-0.8c0-0.3-0.2-0.5-0.5-0.7
		c-0.3-0.1-0.7-0.3-1.1-0.4c-0.4-0.1-0.8-0.2-1.2-0.4c-0.4-0.1-0.8-0.4-1.1-0.6c-0.3-0.3-0.6-0.6-0.9-1S30.2,5.7,30.1,5.1z"/>
	<path d="M49.5,1.2L49,4.2l-2.3-0.3L45.3,14l-3.5-0.5l1.5-10.1L41,3.1L41.5,0L49.5,1.2z"/>
	<path d="M54.8,10.6C55.4,9.7,56,9,56.7,8.4c0.7-0.6,1.4-1,2.1-1.3c0.7-0.3,1.5-0.4,2.2-0.3c0.7,0.1,1.5,0.4,2.2,0.8
		c0.3,0.2,0.6,0.4,0.9,0.7S64.7,9,65,9.5l-1.9,2.8c-0.1-0.3-0.2-0.5-0.4-0.8c-0.2-0.2-0.3-0.4-0.6-0.6c-0.3-0.2-0.6-0.3-0.9-0.4
		s-0.7,0-1,0.1s-0.7,0.3-1.1,0.7c-0.4,0.3-0.8,0.8-1.2,1.4c-0.3,0.4-0.5,0.7-0.6,1.1c-0.2,0.4-0.3,0.7-0.3,1c0,0.3,0,0.6,0.1,0.9
		s0.3,0.5,0.6,0.8c0.3,0.2,0.6,0.4,0.9,0.4C59,17,59.4,17,59.9,17l-2,3c-0.2,0-0.6-0.2-1-0.4c-0.5-0.2-0.9-0.5-1.4-0.8
		c-0.7-0.5-1.3-1.1-1.6-1.7c-0.4-0.6-0.6-1.3-0.6-2c0-0.7,0.1-1.4,0.4-2.2S54.2,11.4,54.8,10.6z"/>
	<path d="M63.1,16c0.8-0.6,1.6-1,2.4-1.3s1.6-0.5,2.4-0.5c0.8,0,1.5,0.2,2.2,0.5s1.3,0.9,1.9,1.8c0.6,0.8,0.9,1.6,1.1,2.4
		c0.1,0.8,0.1,1.5-0.2,2.3c-0.2,0.7-0.7,1.4-1.2,2.1c-0.6,0.7-1.2,1.3-2,1.8c-0.8,0.6-1.6,1-2.4,1.3s-1.6,0.5-2.3,0.4
		c-0.8,0-1.5-0.2-2.2-0.6s-1.3-1-1.9-1.7s-0.9-1.6-1.1-2.3c-0.1-0.8-0.1-1.5,0.1-2.3c0.2-0.7,0.6-1.4,1.2-2.1
		C61.6,17.2,62.3,16.6,63.1,16z M69.3,18.5c-0.3-0.5-0.8-0.7-1.5-0.7c-0.7,0-1.4,0.4-2.4,1.1c-1,0.7-1.6,1.3-1.8,2
		c-0.2,0.6-0.2,1.1,0.2,1.6s0.8,0.7,1.5,0.7c0.6,0,1.5-0.4,2.4-1.1c0.4-0.3,0.7-0.5,1-0.8c0.3-0.3,0.5-0.6,0.7-0.9
		c0.2-0.3,0.2-0.6,0.3-0.9C69.6,19.1,69.5,18.8,69.3,18.5z"/>
	<path d="M78.4,31.4l-8.1,2.8l0,0l8.6-0.2l0.9,4.9l-13.1,2.3l-0.6-3.2l10.4-1.9l0,0l-10.8-0.1l-0.4-2.3l9.7-3.6l0,0L65,32l-0.6-3.2
		l13.1-2.3L78.4,31.4z"/>
	<path d="M77.6,51.3l-8.5-1.5l0,0l7.6,4l-1.6,4.8l-12.6-4.3l1-3.1l10,3.4l0,0l-9.4-5.3L65,47l10.2,1.6l0,0l-9.6-3.3l1-3.1l12.6,4.3
		L77.6,51.3z"/>
	<path d="M66.9,68.7l-2.3-2.1l2.1-2.4L65.3,63l-1.9,2.1L61.1,63L63,61l-1.6-1.4L59.3,62l-2.3-2.1l4.5-5.1l9.9,8.8L66.9,68.7z"/>
	<path d="M58.2,74.7c-0.5,0.3-1.1,0.5-1.6,0.6c-0.5,0.1-1.1,0.1-1.6,0c-0.5-0.1-1-0.4-1.4-0.7c-0.4-0.4-0.8-0.9-1.2-1.5
		c-0.4-0.7-0.6-1.4-0.6-2c0-0.7,0.2-1.3,0.6-1.9l0,0l-4.8-3.8l3.2-1.8l3.9,3.2l0.8-0.4l-2.3-4.1l3.1-1.7l6.4,11.7L58.2,74.7z
		 M56.8,68.9c-0.2,0.1-0.4,0.2-0.6,0.3c-0.4,0.2-0.6,0.5-0.8,0.9c-0.2,0.4-0.1,0.8,0.1,1.2c0.1,0.2,0.3,0.4,0.4,0.5
		c0.2,0.1,0.3,0.2,0.5,0.2c0.2,0,0.4,0,0.6,0c0.2,0,0.4-0.1,0.6-0.2l0.5-0.3L56.8,68.9z"/>
	<path d="M49.1,71.2c0.2,1.1,0.2,2,0.2,2.9c-0.1,0.9-0.3,1.7-0.6,2.4c-0.3,0.7-0.8,1.3-1.4,1.7c-0.6,0.5-1.3,0.8-2.2,0.9
		c-0.3,0.1-0.7,0.1-1.1,0.1c-0.4,0-0.9-0.1-1.4-0.2l-0.6-3.4c0.3,0.1,0.6,0.2,0.8,0.3c0.3,0.1,0.5,0.1,0.8,0
		c0.3-0.1,0.7-0.2,0.9-0.4c0.3-0.2,0.5-0.4,0.7-0.8c0.2-0.3,0.3-0.7,0.3-1.2c0-0.5,0-1.1-0.1-1.8c-0.1-0.4-0.2-0.9-0.3-1.2
		c-0.1-0.4-0.3-0.7-0.5-1s-0.4-0.5-0.7-0.6s-0.6-0.2-1-0.1c-0.4,0.1-0.7,0.2-1,0.3c-0.3,0.2-0.6,0.4-0.9,0.7l-0.6-3.6
		c0.2-0.1,0.5-0.3,1-0.5s1-0.3,1.6-0.4c0.9-0.2,1.7-0.1,2.3,0.1c0.7,0.2,1.3,0.5,1.8,1c0.5,0.5,0.9,1.1,1.3,1.9S48.9,70.3,49.1,71.2
		z"/>
	<path d="M34.7,79.1l1.1-13.2l3.5,0.3l-1.1,13.2L34.7,79.1z"/>
	<path d="M21.9,75.3L24.6,62l3.4,1.4l-0.6,2.2l2.4,1l1.2-1.9l3.4,1.4l-7.5,11.3L21.9,75.3z M25.4,73.9l2.9-4.7l-1.6-0.7L25.4,73.9
		L25.4,73.9z"/>
	<path d="M12.5,68.6l6.8-7.4L17,59.1l2.2-2.4l4.9,4.5l-9,9.8L12.5,68.6z"/>
</g>
</svg>
