<?xml version="1.0" encoding="utf-8"?>
<!-- Generator: Adobe Illustrator 27.8.0, SVG Export Plug-In . SVG Version: 6.00 Build 0)  -->
<svg version="1.1" id="Layer_1" xmlns="http://www.w3.org/2000/svg" xmlns:xlink="http://www.w3.org/1999/xlink" x="0px" y="0px"
	 viewBox="0 0 79 79.5" style="enable-background:new 0 0 79 79.5;" xml:space="preserve">
<style type="text/css">
	.st0{fill:#FF6CF4;}
</style>
<g>
	<path class="st0" d="M0.5,34.2l10,1.3l0.4-3.1l3.2,0.4l-0.9,6.6L0,37.7L0.5,34.2z"/>
	<path class="st0" d="M6.3,18.3l12.9,4.1l-1.8,3.2l-2.1-0.8L14,27.1l1.8,1.4L14,31.8L3.6,23.1L6.3,18.3z M7.2,21.9l4.4,3.4l0.8-1.5
		L7.2,21.9L7.2,21.9z"/>
	<path class="st0" d="M15.8,7.9l2.1,2.3l-1.7,1.5l6.9,7.5l-2.6,2.4l-6.9-7.5L12,15.7l-2.1-2.3L15.8,7.9z"/>
	<path class="st0" d="M24.9,2.9l1.4,2.8l-2.8,1.4l0.9,1.7l2.5-1.3l1.4,2.8l-2.5,1.3l0.9,1.9l2.9-1.5l1.4,2.8l-6,3.1L19,6L24.9,2.9z"
		/>
	<path class="st0" d="M30.1,5.1c-0.1-0.5-0.1-1,0-1.5c0.1-0.5,0.3-1,0.6-1.4C31,1.8,31.5,1.4,32,1s1.3-0.6,2.1-0.7
		c0.3,0,0.6-0.1,0.9-0.1c0.3,0,0.6,0,0.9,0c0.3,0,0.5,0.1,0.7,0.1c0.2,0.1,0.4,0.1,0.5,0.2L37.6,4c-0.6-0.3-1.1-0.5-1.5-0.5
		s-0.7-0.1-1,0c-0.4,0.1-0.7,0.2-1,0.4c0,0.2-0.1,0.5-0.1,0.8s0.2,0.5,0.5,0.7c0.3,0.1,0.7,0.2,1.1,0.3C36,5.8,36.4,5.9,36.8,6
		c0.4,0.1,0.7,0.3,1.1,0.6c0.3,0.2,0.6,0.6,0.8,1s0.4,0.9,0.5,1.5c0.1,0.5,0.1,1,0,1.6c-0.1,0.5-0.3,1-0.7,1.5
		c-0.3,0.5-0.8,0.9-1.4,1.2c-0.6,0.3-1.3,0.6-2.2,0.7c-0.5,0.1-1.1,0.1-1.6,0.1s-1.1-0.1-1.6-0.3l-0.6-3.7c0.5,0.3,1,0.5,1.5,0.6
		c0.5,0.2,1,0.2,1.4,0.1c0.4-0.1,0.8-0.2,1-0.4s0.3-0.4,0.3-0.8c0-0.3-0.2-0.5-0.5-0.7c-0.3-0.1-0.7-0.3-1.1-0.4
		c-0.4-0.1-0.8-0.2-1.2-0.4s-0.8-0.4-1.1-0.6c-0.3-0.2-0.6-0.6-0.9-1S30.2,5.7,30.1,5.1z"/>
	<path class="st0" d="M49.5,1.2l-0.5,3l-2.3-0.3L45.3,14l-3.5-0.5l1.5-10.1L41,3.1L41.5,0L49.5,1.2z"/>
	<path class="st0" d="M62.4,7.1l-5.8,8.3l0,0L64,8.5l2.8,2.4L61.3,19l0,0l7.1-6.7l2.7,2.3l-10.3,8.7l-3.2-2.7l5.2-7.9l0,0l-7,6.4
		l-3.2-2.7l7-11.5L62.4,7.1z"/>
	<path class="st0" d="M76.6,24.9l-2.8,1.4l-1.4-2.8l-1.7,0.9l1.3,2.5l-2.8,1.4l-1.3-2.5L66,26.7l1.5,2.9L64.7,31l-3.1-6l11.8-6
		L76.6,24.9z"/>
	<path class="st0" d="M78.9,34.3c0.1,0.6,0.1,1.2,0,1.7s-0.3,1-0.5,1.4c-0.3,0.4-0.6,0.7-1,1s-0.9,0.4-1.4,0.5
		c-0.6,0.1-1.2,0-1.7-0.2s-1-0.7-1.3-1.3l0,0c-0.1,0.7-0.3,1.3-0.8,1.8c-0.4,0.5-1.1,0.8-2,0.9c-0.5,0.1-1.1,0.1-1.6-0.1
		c-0.5-0.1-1-0.4-1.4-0.7s-0.7-0.8-1-1.3s-0.5-1.1-0.6-1.8l-0.8-5l13.1-2L78.9,34.3z M68.7,35.4c0,0.3,0.2,0.6,0.4,0.8
		c0.2,0.2,0.6,0.3,1,0.2s0.7-0.2,0.9-0.5c0.2-0.2,0.2-0.6,0.1-1.1l-0.2-1l-2.4,0.4L68.7,35.4z M73.7,34.4c0,0.3,0.2,0.6,0.4,0.8
		c0.2,0.2,0.5,0.3,0.9,0.2c0.1,0,0.3-0.1,0.4-0.1c0.1-0.1,0.2-0.1,0.3-0.3s0.1-0.3,0.2-0.5s0-0.5,0-0.8L75.8,33l-2.2,0.3L73.7,34.4z
		"/>
	<path class="st0" d="M74.5,48.9c0.5,0.2,0.9,0.4,1.3,0.8c0.4,0.3,0.7,0.8,0.9,1.2S77,52,77,52.6s-0.2,1.4-0.5,2.2
		c-0.1,0.3-0.2,0.6-0.4,0.8c-0.2,0.3-0.3,0.5-0.5,0.8c-0.2,0.2-0.3,0.4-0.5,0.6c-0.2,0.2-0.3,0.3-0.4,0.3L71.5,56
		c0.6-0.3,1-0.7,1.2-1s0.4-0.6,0.5-0.8c0.1-0.4,0.2-0.7,0.2-1.1c0-0.3-0.2-0.6-0.5-0.7c-0.3-0.1-0.6-0.1-0.8,0.1
		c-0.3,0.2-0.5,0.5-0.8,0.8s-0.6,0.6-0.9,0.9c-0.3,0.3-0.6,0.5-1,0.6C69,55,68.6,55,68.1,55s-1-0.1-1.6-0.3
		c-0.5-0.2-0.9-0.5-1.3-0.8c-0.4-0.4-0.7-0.8-1-1.3c-0.2-0.5-0.4-1.1-0.4-1.8s0.2-1.4,0.5-2.3c0.2-0.5,0.4-1,0.7-1.5
		c0.3-0.5,0.7-0.9,1.1-1.2l3.5,1.4c-0.5,0.3-0.9,0.6-1.3,1c-0.4,0.3-0.7,0.7-0.8,1.2c-0.2,0.4-0.2,0.8-0.2,1.1s0.2,0.5,0.5,0.6
		s0.6,0.1,0.8-0.1c0.3-0.2,0.5-0.4,0.9-0.7c0.3-0.3,0.6-0.6,0.9-0.8c0.3-0.3,0.7-0.5,1.1-0.6s0.8-0.2,1.3-0.2
		C73.3,48.5,73.9,48.6,74.5,48.9z"/>
	<path class="st0" d="M68.7,67l-2.5-2l2-2.5l-1.5-1.2L65,63.6l-2.4-1.9l1.7-2.2l-1.6-1.3l-2,2.5l-2.4-1.9l4.2-5.3l10.4,8.2L68.7,67z
		"/>
	<path class="st0" d="M61.2,73c-0.5,0.3-1,0.6-1.6,0.8C59.1,74,58.5,74,58,73.9s-1-0.3-1.5-0.6c-0.5-0.3-0.9-0.8-1.3-1.4
		c-0.4-0.6-0.7-1.3-0.8-2s0.1-1.3,0.5-1.9l0,0l-5.1-3.4l3-2l4.1,2.9l0.8-0.5l-2.5-4l2.9-2l7.4,11L61.2,73z M59.3,67.2
		c-0.2,0.1-0.4,0.2-0.6,0.3c-0.3,0.2-0.6,0.5-0.7,0.9c-0.1,0.4,0,0.8,0.2,1.2c0.1,0.2,0.3,0.4,0.5,0.5s0.3,0.1,0.5,0.2
		c0.2,0,0.4,0,0.6-0.1c0.2-0.1,0.4-0.2,0.5-0.3l0.5-0.3L59.3,67.2z"/>
	<path class="st0" d="M50.6,77.9l-4.2-12.6l3.4-1.1L54,76.7L50.6,77.9z"/>
	<path class="st0" d="M40.5,79.5l-0.3-3.1l3.2-0.3l-0.2-1.9l-2.8,0.3L40,71.4l2.8-0.3L42.5,69l-3.2,0.3l-0.3-3l6.7-0.7l1.4,13.2
		L40.5,79.5z"/>
	<path class="st0" d="M37.2,75.7c-0.1,0.5-0.3,1-0.5,1.4c-0.3,0.4-0.6,0.8-1.1,1.1c-0.4,0.3-1,0.5-1.6,0.7s-1.4,0.1-2.2,0
		c-0.3-0.1-0.6-0.1-0.9-0.2s-0.6-0.2-0.8-0.3c-0.2-0.1-0.5-0.2-0.7-0.4c-0.2-0.1-0.3-0.2-0.4-0.3l0.7-3.5c0.4,0.5,0.8,0.8,1.2,1
		c0.4,0.2,0.7,0.3,0.9,0.3c0.4,0.1,0.8,0.1,1.1,0s0.5-0.3,0.6-0.6c0.1-0.3,0-0.6-0.3-0.8c-0.3-0.2-0.6-0.4-0.9-0.7
		c-0.4-0.2-0.7-0.4-1-0.7c-0.3-0.2-0.6-0.5-0.8-0.9c-0.2-0.4-0.4-0.7-0.5-1.2c-0.1-0.5-0.1-1,0-1.6c0.1-0.5,0.3-1,0.5-1.5
		s0.6-0.9,1.1-1.2c0.5-0.3,1-0.6,1.7-0.7c0.7-0.1,1.4-0.1,2.3,0c0.5,0.1,1.1,0.3,1.6,0.5s1,0.5,1.4,0.8l-0.7,3.7
		c-0.4-0.4-0.8-0.7-1.2-1.1c-0.4-0.3-0.9-0.5-1.3-0.6c-0.4-0.1-0.8-0.1-1.1,0s-0.5,0.3-0.5,0.6c-0.1,0.3,0,0.6,0.3,0.8
		c0.2,0.2,0.5,0.5,0.9,0.7c0.3,0.2,0.7,0.5,1,0.7c0.3,0.3,0.6,0.6,0.8,0.9c0.2,0.4,0.4,0.8,0.5,1.2C37.4,74.5,37.4,75,37.2,75.7z"/>
</g>
</svg>
