<?xml version="1.0" encoding="utf-8"?>
<!-- Generator: Adobe Illustrator 27.8.0, SVG Export Plug-In . SVG Version: 6.00 Build 0)  -->
<svg version="1.1" id="Layer_1" xmlns="http://www.w3.org/2000/svg" xmlns:xlink="http://www.w3.org/1999/xlink" x="0px" y="0px"
	 viewBox="0 0 1501 586" style="enable-background:new 0 0 1501 586;" xml:space="preserve">
<style type="text/css">
	.st0{fill:#EFE145;}
</style>
<path class="st0" d="M0.8,5.2H49v68h29.5v-68h48.2V186H78.5v-72.1H49V186H0.8V5.2z"/>
<path class="st0" d="M172.2,5.2h74.6L282.1,186h-50.3l-4.6-30.5h-35.5l-4.6,30.5h-50.3L172.2,5.2z M209.8,40.3h-0.5l-11.4,74.6h23.4
	L209.8,40.3z"/>
<path class="st0" d="M273,5.2h50.3l22.3,133h0.5l22.8-133h49.8L377.1,186h-62.5L273,5.2z"/>
<path class="st0" d="M433.7,5.2h91.6v42.1h-43.4v25.9H520v42.1h-38.1v28.4h43.9V186h-92.2V5.2H433.7z"/>
<path class="st0" d="M541.8,5.2h55.1l35.5,116h0.5V5.2h44.2V186H622L586.5,70.2H586V186h-44.2V5.2z"/>
<path class="st0" d="M707.9,5.2h42.4l-25.6,61.4h-30.2L707.9,5.2z"/>
<path class="st0" d="M795,47.4h-31V5.3h110.2v42.1h-31V186H795V47.4z"/>
<path class="st0" d="M0.8,202.9H62c59.7,0,74.4,48.2,74.4,88.4c0,45.7-20.3,92.4-80.5,92.4H0.8V202.9z M49,338h8.6
	C68,338,85,330.9,85,290c0-44.4-20.3-46.2-36.1-46.5L49,338L49,338z"/>
<path class="st0" d="M227,386.7c-54.3,0-76.4-41.1-76.2-93.4c0.3-49.3,20.3-93.4,76.2-93.4s75.9,44.2,76.2,93.4
	C303.4,345.6,281.3,386.7,227,386.7z M227,338.5c15.7,0,26.4-13.7,26.4-46.5s-10.7-46.5-26.4-46.5s-26.4,13.7-26.4,46.5
	C200.5,324.8,211.2,338.5,227,338.5z"/>
<path class="st0" d="M319.1,202.9h55.1l35.5,116h0.5v-116h44.2v180.8h-55.1l-35.5-115.8h-0.5v115.8h-44.2V202.9z"/>
<path class="st0" d="M474.2,202.9h91.6V245h-43.4v25.9h38.1V313h-38.1v28.4h43.9v42.1h-92.2V202.9H474.2z"/>
<path class="st0" d="M650.5,202.9h48.7l13.7,136.6h0.5l15-136.6h49.3l15,132.5h0.5l13.7-132.5h48.7l-29.4,180.8h-56.9l-16-127.4
	h-0.5l-16,127.4h-56.9L650.5,202.9z"/>
<path class="st0" d="M866.5,202.9h91.6V245h-43.4v25.9h38.1V313h-38.1v28.4h43.9v42.1h-92.2L866.5,202.9L866.5,202.9z"/>
<path class="st0" d="M974.7,202.9h48.2v136.6h42.1v44.2h-90.4V202.9H974.7z"/>
<path class="st0" d="M1078,202.9h48.2v136.6h42.1v44.2H1078V202.9z"/>
<path class="st0" d="M0.8,400.5h63c40.4,0,65.5,22.3,65.5,61.2c0,38.1-27.9,60.9-66.5,60.9H49v58.6H0.8V400.5z M49,482h5.8
	c12.7,0,23.1-5.3,23.1-20.1c0-16.2-11.2-20.8-23.9-20.8h-5V482z"/>
<path class="st0" d="M142.9,400.5h68.8c46.5,0,60.7,28.9,60.7,57.9c0,21.1-7.6,38.6-26.1,46.2l32.2,76.7h-49.8l-24.9-64h-12.7v64
	h-48.2L142.9,400.5L142.9,400.5z M191.1,480c2.8,0.5,5.6,0.8,8.6,0.8c10.9,0,21.3-6.6,21.3-20.6c0-13.7-9.9-19-22.3-19h-7.6V480z"/>
<path class="st0" d="M360,584.3c-54.3,0-76.4-41.1-76.2-93.4c0.3-49.3,20.3-93.4,76.2-93.4s75.9,44.2,76.2,93.4
	C436.5,543.2,414.4,584.3,360,584.3z M360,536.1c15.7,0,26.4-13.7,26.4-46.5s-10.7-46.5-26.4-46.5s-26.4,13.7-26.4,46.5
	S344.3,536.1,360,536.1z"/>
<path class="st0" d="M452.2,400.5h61.2c59.7,0,74.4,48.2,74.4,88.4c0,45.7-20.3,92.4-80.5,92.4h-55.1L452.2,400.5L452.2,400.5z
	 M500.4,535.6h8.6c10.4,0,27.4-7.1,27.4-48c0-44.4-20.3-46.2-36.1-46.5L500.4,535.6L500.4,535.6z"/>
<path class="st0" d="M602.8,400.5H651v120.8c0,10.2,3.6,17.3,14.7,17.3c11.1,0,14.7-7.1,14.7-17.3V400.5h48.2v120.8
	c0,47.7-28.7,63-63,63s-63-15.2-63-63V400.5H602.8z"/>
<path class="st0" d="M851.1,578.5c-6.1,2.5-21.6,5.8-36.6,5.8c-48,0-69.8-34.5-69.8-88.9c0-57.9,24.6-98,72.1-98
	c9.6,0,21.6,2.3,34.3,7.1V451c-6.9-4.8-14.2-7.9-21.1-7.9c-21.6,0-34,16-34,51c0,28.7,9.4,44.4,27.2,44.4c10.9,0,17.3-2.8,27.9-9.4
	L851.1,578.5L851.1,578.5z"/>
<path class="st0" d="M898.5,442.7h-31v-42.1h110.2v42.1h-31v138.6h-48.2V442.7z"/>
<path class="st0" d="M993,400.5h48.2v180.8H993V400.5z"/>
<path class="st0" d="M1133.3,584.3c-54.3,0-76.4-41.1-76.2-93.4c0.3-49.3,20.3-93.4,76.2-93.4c55.9,0,75.9,44.2,76.2,93.4
	C1209.7,543.2,1187.6,584.3,1133.3,584.3z M1133.3,536.1c15.7,0,26.4-13.7,26.4-46.5s-10.7-46.5-26.4-46.5
	c-15.7,0-26.4,13.7-26.4,46.5S1117.5,536.1,1133.3,536.1z"/>
<path class="st0" d="M1224.5,400.5h55.1l35.5,116h0.5v-116h44.2v180.8h-55.1l-35.5-115.8h-0.5v115.8h-44.2V400.5z"/>
<path class="st0" d="M1379.9,522.9c7.6,6.1,22.3,15.7,37.3,15.7c12.7,0,19.8-4.3,19.8-12.7c0-22.1-60.9-12.7-60.9-72.9
	c0-25.6,16.8-55.6,65-55.6c16.2,0,34.8,5.1,40.4,9.4v48.7c-10.2-7.6-21.1-12.4-31.5-12.4c-10.9,0-20.6,4.3-20.6,13.2
	c0,22.8,60.9,9.9,60.9,69.3c0,26.7-17,58.6-67.8,58.6c-19.3,0-32.7-4.3-42.6-9.9L1379.9,522.9L1379.9,522.9z"/>
<path class="st0" d="M985.9,114.9l51.3-109.7h51.3l-38.6,65.5h0.5l75.5-65.5h51.3l-139.8,109.7L975.5,186h-51.6L985.9,114.9z"/>
<path class="st0" d="M1101.1,189.1c-58.1,0-45.8-41.1,0-93.4c43.2-49.3,103.1-93.4,162.8-93.4c59.7,0,42.6,44.2,0,93.4
	C1218.6,147.9,1159.2,189.1,1101.1,189.1z M1143.1,140.8c16.8,0,40.2-13.7,68.7-46.5s29.1-46.5,12.3-46.5
	c-16.8,0-40.2,13.7-68.7,46.5S1126.3,140.8,1143.1,140.8z"/>
<path class="st0" d="M1366.2,5.2h51.6L1312.5,126c-8.8,10.2-11.2,17.3,0.7,17.3c11.9,0,21.9-7.1,30.8-17.3L1449.3,5.2h51.6
	L1395.6,126c-41.6,47.7-85.5,63-122.2,63s-54-15.2-12.4-63L1366.2,5.2z"/>
</svg>
